{"title":"Linkin Park - Points of Authority [LIVE] [HQ] Anky","uid":6553260,"size":96157811,"categoryP":"video","categoryS":"music_videos","magnet":"?xt=urn:btih:e7d71d6d91630d87721f9aa97ca16695966c5214&amp;dn=+Linkin+Park+-+Points+of+Authority+%5BLIVE%5D+%5BHQ%5D+Anky&amp;tr=udp%3A%2F%2Ftracker.openbittorrent.com%3A80&amp;tr=udp%3A%2F%2Fopen.demonii.com%3A1337&amp;tr=udp%3A%2F%2Ftracker.coppersurfer.tk%3A6969&amp;tr=udp%3A%2F%2Fexodus.desync.com%3A6969","seeders":0,"leechers":1,"uploader":"ankygautam","files":2,"time":1311183422,"description":"General\nComplete name                    : Linkin Park - Points of Authority [LIVE] [HQ] Anky.avi\nFormat                           : AVI\nFormat/Info                      : Audio Video Interleave\nFile size                        : 91.7 MiB\nDuration                         : 3mn 30s\nOverall bit rate                 : 3 660 Kbps\nWriting application              : VirtualDubMod 1.4.13\nWriting library                  : VirtualDub build 14328/release\n\nVideo\nID                               : 0\nFormat                           : MPEG-4 Visual\nFormat profile                   : AdvancedSimple@L3\nFormat settings, BVOP            : No\nFormat settings, QPel            : No\nFormat settings, GMC             : 2 warppoints\nFormat settings, Matrix          : Default (H.263)\nCodec ID                         : XVID\nCodec ID/Hint                    : XviD\nDuration                         : 3mn 30s\nBit rate                         : 3 328 Kbps\nWidth                            : 640 pixels\nHeight                           : 348 pixels\nDisplay aspect ratio             : 16:9\nFrame rate                       : 29.970 fps\nResolution                       : 24 bits\nColorimetry                      : 4:2:0\nScan type                        : Progressive\nBits/(Pixel*Frame)               : 0.499\nStream size                      : 83.4 MiB (91%)\nWriting library                  : XviD 0.0.09 (UTC 2003-03-25)\n\nAudio\nID                               : 1\nFormat                           : MPEG Audio\nFormat version                   : Version 1\nFormat profile                   : Layer 3\nCodec ID                         : 55\nCodec ID/Hint                    : MP3\nDuration                         : 3mn 30s\nBit rate mode                    : Constant\nBit rate                         : 320 Kbps\nChannel(s)                       : 2 channels\nSampling rate                    : 48.0 KHz\nResolution                       : 16 bits\nStream size                      : 8.02 MiB (9%)\n\n\n\n\n[img]http://img.sceper.eu/images/vlcsnawdw.png[/img]","torrent":{"xt":"urn:btih:e7d71d6d91630d87721f9aa97ca16695966c5214","amp;dn":"+Linkin+Park+-+Points+of+Authority+%5BLIVE%5D+%5BHQ%5D+Anky","amp;tr":["udp%3A%2F%2Ftracker.openbittorrent.com%3A80","udp%3A%2F%2Fopen.demonii.com%3A1337","udp%3A%2F%2Ftracker.coppersurfer.tk%3A6969","udp%3A%2F%2Fexodus.desync.com%3A6969"],"infoHash":"e7d71d6d91630d87721f9aa97ca16695966c5214","infoHashBuffer":{"type":"Buffer","data":[231,215,29,109,145,99,13,135,114,31,154,169,124,161,102,149,150,108,82,20]},"announce":[],"urlList":[]}}